<svg xmlns="http://www.w3.org/2000/svg" width="800" height="800">
<rect width="800" height="800" fill="#0a0a0a"/>
<line x1="770.4" y1="400.2" x2="770.4" y2="386.8" stroke="hsl(200,70%,60%)" stroke-width="0.8" opacity="0.85"/>
<line x1="770.4" y1="373.4" x2="770.4" y2="360.0" stroke="hsl(201,70%,60%)" stroke-width="0.8" opacity="0.85"/>
<line x1="770.4" y1="360.0" x2="770.4" y2="346.6" stroke="hsl(202,70%,60%)" stroke-width="0.8" opacity="0.85"/>
<line x1="770.4" y1="346.6" x2="770.4" y2="333.2" stroke="hsl(203,70%,60%)" stroke-width="0.8" opacity="0.85"/>
<line x1="770.4" y1="333.2" x2="770.4" y2="319.8" stroke="hsl(204,70%,60%)" stroke-width="0.8" opacity="0.85"/>
<line x1="770.4" y1="306.4" x2="770.4" y2="293.0" stroke="hsl(205,70%,60%)" stroke-width="0.8" opacity="0.85"/>
<line x1="770.4" y1="279.6" x2="770.4" y2="266.3" stroke="hsl(207,70%,60%)" stroke-width="0.8" opacity="0.85"/>
<line x1="770.4" y1="252.9" x2="770.4" y2="239.5" stroke="hsl(208,70%,60%)" stroke-width="0.8" opacity="0.85"/>
<line x1="770.4" y1="226.1" x2="764.8" y2="213.9" stroke="hsl(209,70%,60%)" stroke-width="0.8" opacity="0.85"/>
<line x1="764.8" y1="213.9" x2="759.1" y2="201.8" stroke="hsl(210,70%,60%)" stroke-width="0.8" opacity="0.85"/>
<line x1="753.5" y1="189.7" x2="743.2" y2="181.1" stroke="hsl(211,70%,60%)" stroke-width="0.8" opacity="0.85"/>
<line x1="743.2" y1="181.1" x2="733.0" y2="172.5" stroke="hsl(212,70%,60%)" stroke-width="0.8" opacity="0.85"/>
<line x1="722.7" y1="163.9" x2="709.8" y2="160.4" stroke="hsl(214,70%,60%)" stroke-width="0.8" opacity="0.85"/>
<line x1="709.8" y1="160.4" x2="696.8" y2="156.9" stroke="hsl(215,70%,60%)" stroke-width="0.8" opacity="0.85"/>
<line x1="683.9" y1="153.5" x2="671.0" y2="150.0" stroke="hsl(216,70%,60%)" stroke-width="0.8" opacity="0.85"/>
<line x1="671.0" y1="150.0" x2="658.0" y2="146.5" stroke="hsl(217,70%,60%)" stroke-width="0.8" opacity="0.85"/>
<line x1="658.0" y1="146.5" x2="645.1" y2="143.1" stroke="hsl(218,70%,60%)" stroke-width="0.8" opacity="0.85"/>
<line x1="645.1" y1="143.1" x2="632.2" y2="139.6" stroke="hsl(220,70%,60%)" stroke-width="0.8" opacity="0.85"/>
<line x1="619.2" y1="136.1" x2="606.3" y2="132.7" stroke="hsl(221,70%,60%)" stroke-width="0.8" opacity="0.85"/>
<line x1="593.4" y1="129.2" x2="580.4" y2="125.7" stroke="hsl(222,70%,60%)" stroke-width="0.8" opacity="0.85"/>
<line x1="567.5" y1="122.3" x2="554.6" y2="118.8" stroke="hsl(223,70%,60%)" stroke-width="0.8" opacity="0.85"/>
<line x1="541.6" y1="115.3" x2="528.7" y2="111.9" stroke="hsl(224,70%,60%)" stroke-width="0.8" opacity="0.85"/>
<line x1="528.7" y1="111.9" x2="515.7" y2="108.4" stroke="hsl(225,70%,60%)" stroke-width="0.8" opacity="0.85"/>
<line x1="515.7" y1="108.4" x2="502.8" y2="104.9" stroke="hsl(227,70%,60%)" stroke-width="0.8" opacity="0.85"/>
<line x1="502.8" y1="104.9" x2="489.9" y2="101.5" stroke="hsl(228,70%,60%)" stroke-width="0.8" opacity="0.85"/>
<line x1="476.9" y1="98.0" x2="464.0" y2="94.5" stroke="hsl(229,70%,60%)" stroke-width="0.8" opacity="0.85"/>
<line x1="451.1" y1="91.1" x2="438.1" y2="87.6" stroke="hsl(230,70%,60%)" stroke-width="0.8" opacity="0.85"/>
<line x1="425.2" y1="84.1" x2="412.3" y2="80.7" stroke="hsl(231,70%,60%)" stroke-width="0.8" opacity="0.85"/>
<line x1="399.3" y1="77.2" x2="386.4" y2="73.7" stroke="hsl(232,70%,60%)" stroke-width="0.8" opacity="0.85"/>
<line x1="386.4" y1="73.7" x2="373.5" y2="70.3" stroke="hsl(234,70%,60%)" stroke-width="0.8" opacity="0.85"/>
<line x1="373.5" y1="70.3" x2="360.5" y2="66.8" stroke="hsl(235,70%,60%)" stroke-width="0.8" opacity="0.85"/>
<line x1="360.5" y1="66.8" x2="347.6" y2="63.3" stroke="hsl(236,70%,60%)" stroke-width="0.8" opacity="0.85"/>
<line x1="334.7" y1="59.9" x2="321.7" y2="56.4" stroke="hsl(237,70%,60%)" stroke-width="0.8" opacity="0.85"/>
<line x1="308.8" y1="53.0" x2="295.9" y2="49.5" stroke="hsl(238,70%,60%)" stroke-width="0.8" opacity="0.85"/>
<line x1="282.9" y1="46.0" x2="269.7" y2="48.3" stroke="hsl(240,70%,60%)" stroke-width="0.8" opacity="0.85"/>
<line x1="256.6" y1="50.7" x2="243.4" y2="53.0" stroke="hsl(241,70%,60%)" stroke-width="0.8" opacity="0.85"/>
<line x1="243.4" y1="53.0" x2="230.2" y2="55.3" stroke="hsl(242,70%,60%)" stroke-width="0.8" opacity="0.85"/>
<line x1="230.2" y1="55.3" x2="217.0" y2="57.6" stroke="hsl(243,70%,60%)" stroke-width="0.8" opacity="0.85"/>
<line x1="217.0" y1="57.6" x2="203.8" y2="60.0" stroke="hsl(244,70%,60%)" stroke-width="0.8" opacity="0.85"/>
<line x1="190.6" y1="62.3" x2="177.4" y2="64.6" stroke="hsl(245,70%,60%)" stroke-width="0.8" opacity="0.85"/>
<line x1="164.3" y1="66.9" x2="151.1" y2="69.3" stroke="hsl(247,70%,60%)" stroke-width="0.8" opacity="0.85"/>
<line x1="137.9" y1="71.6" x2="124.7" y2="73.9" stroke="hsl(248,70%,60%)" stroke-width="0.8" opacity="0.85"/>
<line x1="111.5" y1="76.2" x2="100.5" y2="83.9" stroke="hsl(249,70%,60%)" stroke-width="0.8" opacity="0.85"/>
<line x1="100.5" y1="83.9" x2="89.6" y2="91.6" stroke="hsl(250,70%,60%)" stroke-width="0.8" opacity="0.85"/>
<line x1="78.6" y1="99.3" x2="71.9" y2="110.9" stroke="hsl(251,70%,60%)" stroke-width="0.8" opacity="0.85"/>
<line x1="71.9" y1="110.9" x2="65.2" y2="122.5" stroke="hsl(252,70%,60%)" stroke-width="0.8" opacity="0.85"/>
<line x1="58.5" y1="134.1" x2="57.3" y2="147.4" stroke="hsl(254,70%,60%)" stroke-width="0.8" opacity="0.85"/>
<line x1="57.3" y1="147.4" x2="56.2" y2="160.8" stroke="hsl(255,70%,60%)" stroke-width="0.8" opacity="0.85"/>
<line x1="55.0" y1="174.1" x2="53.8" y2="187.4" stroke="hsl(256,70%,60%)" stroke-width="0.8" opacity="0.85"/>
<line x1="53.8" y1="187.4" x2="52.7" y2="200.8" stroke="hsl(257,70%,60%)" stroke-width="0.8" opacity="0.85"/>
<line x1="52.7" y1="200.8" x2="51.5" y2="214.1" stroke="hsl(258,70%,60%)" stroke-width="0.8" opacity="0.85"/>
<line x1="51.5" y1="214.1" x2="50.3" y2="227.5" stroke="hsl(260,70%,60%)" stroke-width="0.8" opacity="0.85"/>
<line x1="49.2" y1="240.8" x2="48.0" y2="254.1" stroke="hsl(261,70%,60%)" stroke-width="0.8" opacity="0.85"/>
<line x1="46.8" y1="267.5" x2="45.7" y2="280.8" stroke="hsl(262,70%,60%)" stroke-width="0.8" opacity="0.85"/>
<line x1="44.5" y1="294.2" x2="43.3" y2="307.5" stroke="hsl(263,70%,60%)" stroke-width="0.8" opacity="0.85"/>
<line x1="42.2" y1="320.8" x2="41.0" y2="334.2" stroke="hsl(264,70%,60%)" stroke-width="0.8" opacity="0.85"/>
<line x1="41.0" y1="334.2" x2="39.8" y2="347.5" stroke="hsl(265,70%,60%)" stroke-width="0.8" opacity="0.85"/>
<line x1="39.8" y1="347.5" x2="38.7" y2="360.8" stroke="hsl(267,70%,60%)" stroke-width="0.8" opacity="0.85"/>
<line x1="38.7" y1="360.8" x2="37.5" y2="374.2" stroke="hsl(268,70%,60%)" stroke-width="0.8" opacity="0.85"/>
<line x1="36.3" y1="387.5" x2="35.2" y2="400.9" stroke="hsl(269,70%,60%)" stroke-width="0.8" opacity="0.85"/>
<line x1="34.0" y1="414.2" x2="32.8" y2="427.5" stroke="hsl(270,70%,60%)" stroke-width="0.8" opacity="0.85"/>
<line x1="31.7" y1="440.9" x2="30.5" y2="454.2" stroke="hsl(271,70%,60%)" stroke-width="0.8" opacity="0.85"/>
<line x1="29.3" y1="467.6" x2="28.2" y2="480.9" stroke="hsl(272,70%,60%)" stroke-width="0.8" opacity="0.85"/>
<line x1="28.2" y1="480.9" x2="27.0" y2="494.2" stroke="hsl(274,70%,60%)" stroke-width="0.8" opacity="0.85"/>
<line x1="27.0" y1="494.2" x2="25.8" y2="507.6" stroke="hsl(275,70%,60%)" stroke-width="0.8" opacity="0.85"/>
<line x1="25.8" y1="507.6" x2="24.7" y2="520.9" stroke="hsl(276,70%,60%)" stroke-width="0.8" opacity="0.85"/>
<line x1="23.5" y1="534.3" x2="22.3" y2="547.6" stroke="hsl(277,70%,60%)" stroke-width="0.8" opacity="0.85"/>
<line x1="21.2" y1="560.9" x2="20.0" y2="574.3" stroke="hsl(278,70%,60%)" stroke-width="0.8" opacity="0.85"/>
<line x1="20.0" y1="574.3" x2="24.6" y2="586.9" stroke="hsl(280,70%,60%)" stroke-width="0.8" opacity="0.85"/>
<line x1="29.2" y1="599.4" x2="33.7" y2="612.0" stroke="hsl(281,70%,60%)" stroke-width="0.8" opacity="0.85"/>
<line x1="33.7" y1="612.0" x2="38.3" y2="624.6" stroke="hsl(282,70%,60%)" stroke-width="0.8" opacity="0.85"/>
<line x1="38.3" y1="624.6" x2="42.9" y2="637.2" stroke="hsl(283,70%,60%)" stroke-width="0.8" opacity="0.85"/>
<line x1="42.9" y1="637.2" x2="47.5" y2="649.8" stroke="hsl(284,70%,60%)" stroke-width="0.8" opacity="0.85"/>
<line x1="52.1" y1="662.4" x2="56.6" y2="674.9" stroke="hsl(285,70%,60%)" stroke-width="0.8" opacity="0.85"/>
<line x1="61.2" y1="687.5" x2="65.8" y2="700.1" stroke="hsl(287,70%,60%)" stroke-width="0.8" opacity="0.85"/>
<line x1="70.4" y1="712.7" x2="75.0" y2="725.3" stroke="hsl(288,70%,60%)" stroke-width="0.8" opacity="0.85"/>
<line x1="79.5" y1="737.9" x2="89.0" y2="747.3" stroke="hsl(289,70%,60%)" stroke-width="0.8" opacity="0.85"/>
<line x1="89.0" y1="747.3" x2="98.5" y2="756.8" stroke="hsl(290,70%,60%)" stroke-width="0.8" opacity="0.85"/>
<line x1="107.9" y1="766.3" x2="120.5" y2="770.8" stroke="hsl(291,70%,60%)" stroke-width="0.8" opacity="0.85"/>
<line x1="120.5" y1="770.8" x2="133.1" y2="775.4" stroke="hsl(292,70%,60%)" stroke-width="0.8" opacity="0.85"/>
<line x1="145.7" y1="780.0" x2="159.0" y2="778.8" stroke="hsl(294,70%,60%)" stroke-width="0.8" opacity="0.85"/>
<line x1="159.0" y1="778.8" x2="172.4" y2="777.7" stroke="hsl(295,70%,60%)" stroke-width="0.8" opacity="0.85"/>
<line x1="185.7" y1="776.5" x2="199.0" y2="775.3" stroke="hsl(296,70%,60%)" stroke-width="0.8" opacity="0.85"/>
<line x1="199.0" y1="775.3" x2="212.4" y2="774.2" stroke="hsl(297,70%,60%)" stroke-width="0.8" opacity="0.85"/>
<line x1="212.4" y1="774.2" x2="225.7" y2="773.0" stroke="hsl(298,70%,60%)" stroke-width="0.8" opacity="0.85"/>
<line x1="225.7" y1="773.0" x2="239.1" y2="771.8" stroke="hsl(300,70%,60%)" stroke-width="0.8" opacity="0.85"/>
<line x1="252.4" y1="770.7" x2="265.7" y2="769.5" stroke="hsl(301,70%,60%)" stroke-width="0.8" opacity="0.85"/>
<line x1="279.1" y1="768.3" x2="292.4" y2="767.2" stroke="hsl(302,70%,60%)" stroke-width="0.8" opacity="0.85"/>
<line x1="305.8" y1="766.0" x2="319.1" y2="764.8" stroke="hsl(303,70%,60%)" stroke-width="0.8" opacity="0.85"/>
<line x1="332.4" y1="763.7" x2="345.8" y2="762.5" stroke="hsl(304,70%,60%)" stroke-width="0.8" opacity="0.85"/>
<line x1="345.8" y1="762.5" x2="359.1" y2="761.3" stroke="hsl(305,70%,60%)" stroke-width="0.8" opacity="0.85"/>
<line x1="359.1" y1="761.3" x2="372.5" y2="760.2" stroke="hsl(307,70%,60%)" stroke-width="0.8" opacity="0.85"/>
<line x1="372.5" y1="760.2" x2="385.8" y2="759.0" stroke="hsl(308,70%,60%)" stroke-width="0.8" opacity="0.85"/>
<line x1="399.1" y1="757.8" x2="412.5" y2="756.7" stroke="hsl(309,70%,60%)" stroke-width="0.8" opacity="0.85"/>
<line x1="425.8" y1="755.5" x2="439.2" y2="754.3" stroke="hsl(310,70%,60%)" stroke-width="0.8" opacity="0.85"/>
<line x1="452.5" y1="753.2" x2="465.8" y2="752.0" stroke="hsl(311,70%,60%)" stroke-width="0.8" opacity="0.85"/>
<line x1="479.2" y1="750.8" x2="492.5" y2="749.7" stroke="hsl(312,70%,60%)" stroke-width="0.8" opacity="0.85"/>
<line x1="492.5" y1="749.7" x2="505.9" y2="748.5" stroke="hsl(314,70%,60%)" stroke-width="0.8" opacity="0.85"/>
<line x1="505.9" y1="748.5" x2="519.2" y2="747.3" stroke="hsl(315,70%,60%)" stroke-width="0.8" opacity="0.85"/>
<line x1="519.2" y1="747.3" x2="532.5" y2="746.2" stroke="hsl(316,70%,60%)" stroke-width="0.8" opacity="0.85"/>
<line x1="545.9" y1="745.0" x2="559.2" y2="743.8" stroke="hsl(317,70%,60%)" stroke-width="0.8" opacity="0.85"/>
<line x1="572.6" y1="742.7" x2="585.9" y2="741.5" stroke="hsl(318,70%,60%)" stroke-width="0.8" opacity="0.85"/>
<line x1="599.2" y1="740.3" x2="610.8" y2="733.6" stroke="hsl(320,70%,60%)" stroke-width="0.8" opacity="0.85"/>
<line x1="622.4" y1="726.9" x2="634.0" y2="720.2" stroke="hsl(321,70%,60%)" stroke-width="0.8" opacity="0.85"/>
<line x1="634.0" y1="720.2" x2="645.6" y2="713.5" stroke="hsl(322,70%,60%)" stroke-width="0.8" opacity="0.85"/>
<line x1="645.6" y1="713.5" x2="657.2" y2="706.8" stroke="hsl(323,70%,60%)" stroke-width="0.8" opacity="0.85"/>
<line x1="657.2" y1="706.8" x2="668.8" y2="700.1" stroke="hsl(324,70%,60%)" stroke-width="0.8" opacity="0.85"/>
<line x1="680.4" y1="693.5" x2="692.0" y2="686.8" stroke="hsl(325,70%,60%)" stroke-width="0.8" opacity="0.85"/>
<line x1="703.6" y1="680.1" x2="715.2" y2="673.4" stroke="hsl(327,70%,60%)" stroke-width="0.8" opacity="0.85"/>
<line x1="726.8" y1="666.7" x2="738.4" y2="660.0" stroke="hsl(328,70%,60%)" stroke-width="0.8" opacity="0.85"/>
<line x1="750.0" y1="653.3" x2="757.7" y2="642.3" stroke="hsl(329,70%,60%)" stroke-width="0.8" opacity="0.85"/>
<line x1="757.7" y1="642.3" x2="765.3" y2="631.3" stroke="hsl(330,70%,60%)" stroke-width="0.8" opacity="0.85"/>
<line x1="773.0" y1="620.4" x2="775.3" y2="607.2" stroke="hsl(331,70%,60%)" stroke-width="0.8" opacity="0.85"/>
<line x1="775.3" y1="607.2" x2="777.7" y2="594.0" stroke="hsl(332,70%,60%)" stroke-width="0.8" opacity="0.85"/>
<line x1="780.0" y1="580.8" x2="776.5" y2="567.9" stroke="hsl(334,70%,60%)" stroke-width="0.8" opacity="0.85"/>
<line x1="776.5" y1="567.9" x2="773.1" y2="554.9" stroke="hsl(335,70%,60%)" stroke-width="0.8" opacity="0.85"/>
<line x1="769.6" y1="542.0" x2="766.1" y2="529.1" stroke="hsl(336,70%,60%)" stroke-width="0.8" opacity="0.85"/>
<line x1="766.1" y1="529.1" x2="762.7" y2="516.1" stroke="hsl(337,70%,60%)" stroke-width="0.8" opacity="0.85"/>
<line x1="762.7" y1="516.1" x2="759.2" y2="503.2" stroke="hsl(338,70%,60%)" stroke-width="0.8" opacity="0.85"/>
<line x1="759.2" y1="503.2" x2="755.7" y2="490.3" stroke="hsl(340,70%,60%)" stroke-width="0.8" opacity="0.85"/>
<line x1="752.3" y1="477.3" x2="748.8" y2="464.4" stroke="hsl(341,70%,60%)" stroke-width="0.8" opacity="0.85"/>
<line x1="745.3" y1="451.5" x2="741.9" y2="438.5" stroke="hsl(342,70%,60%)" stroke-width="0.8" opacity="0.85"/>
<line x1="738.4" y1="425.6" x2="734.9" y2="412.7" stroke="hsl(343,70%,60%)" stroke-width="0.8" opacity="0.85"/>
<line x1="731.5" y1="399.7" x2="728.0" y2="386.8" stroke="hsl(344,70%,60%)" stroke-width="0.8" opacity="0.85"/>
<line x1="728.0" y1="386.8" x2="724.5" y2="373.9" stroke="hsl(345,70%,60%)" stroke-width="0.8" opacity="0.85"/>
<line x1="724.5" y1="373.9" x2="721.1" y2="360.9" stroke="hsl(347,70%,60%)" stroke-width="0.8" opacity="0.85"/>
<line x1="721.1" y1="360.9" x2="717.6" y2="348.0" stroke="hsl(348,70%,60%)" stroke-width="0.8" opacity="0.85"/>
<line x1="714.2" y1="335.1" x2="710.7" y2="322.1" stroke="hsl(349,70%,60%)" stroke-width="0.8" opacity="0.85"/>
<line x1="707.2" y1="309.2" x2="703.8" y2="296.3" stroke="hsl(350,70%,60%)" stroke-width="0.8" opacity="0.85"/>
<line x1="700.3" y1="283.3" x2="696.8" y2="270.4" stroke="hsl(351,70%,60%)" stroke-width="0.8" opacity="0.85"/>
<line x1="693.4" y1="257.5" x2="689.9" y2="244.5" stroke="hsl(352,70%,60%)" stroke-width="0.8" opacity="0.85"/>
<line x1="689.9" y1="244.5" x2="686.4" y2="231.6" stroke="hsl(354,70%,60%)" stroke-width="0.8" opacity="0.85"/>
<line x1="686.4" y1="231.6" x2="683.0" y2="218.7" stroke="hsl(355,70%,60%)" stroke-width="0.8" opacity="0.85"/>
<line x1="683.0" y1="218.7" x2="679.5" y2="205.7" stroke="hsl(356,70%,60%)" stroke-width="0.8" opacity="0.85"/>
<line x1="676.0" y1="192.8" x2="672.6" y2="179.9" stroke="hsl(357,70%,60%)" stroke-width="0.8" opacity="0.85"/>
<line x1="669.1" y1="166.9" x2="665.6" y2="154.0" stroke="hsl(358,70%,60%)" stroke-width="0.8" opacity="0.85"/>
</svg>