<svg xmlns="http://www.w3.org/2000/svg" width="800" height="800">
<rect width="800" height="800" fill="#0a0a0a"/>
<line x1="69.0" y1="390.1" x2="69.0" y2="339.2" stroke="hsl(200,70%,60%)" stroke-width="0.8" opacity="0.85"/>
<line x1="69.0" y1="339.2" x2="82.2" y2="290.0" stroke="hsl(204,70%,60%)" stroke-width="0.8" opacity="0.85"/>
<line x1="95.3" y1="240.8" x2="120.8" y2="196.8" stroke="hsl(208,70%,60%)" stroke-width="0.8" opacity="0.85"/>
<line x1="146.2" y1="152.7" x2="182.2" y2="116.7" stroke="hsl(212,70%,60%)" stroke-width="0.8" opacity="0.85"/>
<line x1="182.2" y1="116.7" x2="226.3" y2="91.3" stroke="hsl(217,70%,60%)" stroke-width="0.8" opacity="0.85"/>
<line x1="226.3" y1="91.3" x2="270.4" y2="65.8" stroke="hsl(221,70%,60%)" stroke-width="0.8" opacity="0.85"/>
<line x1="270.4" y1="65.8" x2="314.4" y2="40.4" stroke="hsl(225,70%,60%)" stroke-width="0.8" opacity="0.85"/>
<line x1="314.4" y1="40.4" x2="363.6" y2="27.2" stroke="hsl(230,70%,60%)" stroke-width="0.8" opacity="0.85"/>
<line x1="363.6" y1="27.2" x2="414.5" y2="27.2" stroke="hsl(234,70%,60%)" stroke-width="0.8" opacity="0.85"/>
<line x1="414.5" y1="27.2" x2="465.4" y2="27.2" stroke="hsl(238,70%,60%)" stroke-width="0.8" opacity="0.85"/>
<line x1="465.4" y1="27.2" x2="516.3" y2="27.2" stroke="hsl(243,70%,60%)" stroke-width="0.8" opacity="0.85"/>
<line x1="516.3" y1="27.2" x2="565.4" y2="40.4" stroke="hsl(247,70%,60%)" stroke-width="0.8" opacity="0.85"/>
<line x1="565.4" y1="40.4" x2="609.5" y2="65.8" stroke="hsl(251,70%,60%)" stroke-width="0.8" opacity="0.85"/>
<line x1="609.5" y1="65.8" x2="653.6" y2="91.3" stroke="hsl(256,70%,60%)" stroke-width="0.8" opacity="0.85"/>
<line x1="653.6" y1="91.3" x2="697.7" y2="116.7" stroke="hsl(260,70%,60%)" stroke-width="0.8" opacity="0.85"/>
<line x1="653.6" y1="91.3" x2="689.6" y2="127.2" stroke="hsl(264,70%,60%)" stroke-width="0.8" opacity="0.85"/>
<line x1="689.6" y1="127.2" x2="715.0" y2="171.3" stroke="hsl(269,70%,60%)" stroke-width="0.8" opacity="0.85"/>
<line x1="740.5" y1="215.4" x2="753.7" y2="264.6" stroke="hsl(273,70%,60%)" stroke-width="0.8" opacity="0.85"/>
<line x1="766.8" y1="313.7" x2="780.0" y2="362.9" stroke="hsl(277,70%,60%)" stroke-width="0.8" opacity="0.85"/>
<line x1="780.0" y1="362.9" x2="780.0" y2="413.8" stroke="hsl(282,70%,60%)" stroke-width="0.8" opacity="0.85"/>
<line x1="780.0" y1="464.7" x2="766.8" y2="513.8" stroke="hsl(286,70%,60%)" stroke-width="0.8" opacity="0.85"/>
<line x1="753.7" y1="563.0" x2="740.5" y2="612.2" stroke="hsl(290,70%,60%)" stroke-width="0.8" opacity="0.85"/>
<line x1="740.5" y1="612.2" x2="715.0" y2="656.2" stroke="hsl(295,70%,60%)" stroke-width="0.8" opacity="0.85"/>
<line x1="689.6" y1="700.3" x2="653.6" y2="736.3" stroke="hsl(299,70%,60%)" stroke-width="0.8" opacity="0.85"/>
<line x1="740.5" y1="612.2" x2="715.0" y2="656.2" stroke="hsl(303,70%,60%)" stroke-width="0.8" opacity="0.85"/>
<line x1="715.0" y1="656.2" x2="679.0" y2="692.2" stroke="hsl(308,70%,60%)" stroke-width="0.8" opacity="0.85"/>
<line x1="679.0" y1="692.2" x2="643.1" y2="728.2" stroke="hsl(312,70%,60%)" stroke-width="0.8" opacity="0.85"/>
<line x1="643.1" y1="728.2" x2="607.1" y2="764.2" stroke="hsl(316,70%,60%)" stroke-width="0.8" opacity="0.85"/>
<line x1="643.1" y1="728.2" x2="599.0" y2="753.7" stroke="hsl(321,70%,60%)" stroke-width="0.8" opacity="0.85"/>
<line x1="599.0" y1="753.7" x2="549.8" y2="766.8" stroke="hsl(325,70%,60%)" stroke-width="0.8" opacity="0.85"/>
<line x1="500.7" y1="780.0" x2="449.8" y2="780.0" stroke="hsl(329,70%,60%)" stroke-width="0.8" opacity="0.85"/>
<line x1="398.9" y1="780.0" x2="348.0" y2="780.0" stroke="hsl(334,70%,60%)" stroke-width="0.8" opacity="0.85"/>
<line x1="348.0" y1="780.0" x2="298.8" y2="766.8" stroke="hsl(338,70%,60%)" stroke-width="0.8" opacity="0.85"/>
<line x1="249.7" y1="753.7" x2="205.6" y2="728.2" stroke="hsl(342,70%,60%)" stroke-width="0.8" opacity="0.85"/>
<line x1="161.5" y1="702.8" x2="117.4" y2="677.3" stroke="hsl(347,70%,60%)" stroke-width="0.8" opacity="0.85"/>
<line x1="117.4" y1="677.3" x2="81.4" y2="641.3" stroke="hsl(351,70%,60%)" stroke-width="0.8" opacity="0.85"/>
<line x1="45.4" y1="605.3" x2="20.0" y2="561.3" stroke="hsl(355,70%,60%)" stroke-width="0.8" opacity="0.85"/>
</svg>