<svg xmlns="http://www.w3.org/2000/svg" width="800" height="800">
<rect width="800" height="800" fill="#0a0a0a"/>
<line x1="780.0" y1="364.2" x2="780.0" y2="355.8" stroke="hsl(200,70%,60%)" stroke-width="0.8" opacity="0.85"/>
<line x1="780.0" y1="355.8" x2="780.0" y2="347.5" stroke="hsl(200,70%,60%)" stroke-width="0.8" opacity="0.85"/>
<line x1="780.0" y1="339.1" x2="780.0" y2="330.8" stroke="hsl(201,70%,60%)" stroke-width="0.8" opacity="0.85"/>
<line x1="780.0" y1="330.8" x2="780.0" y2="322.4" stroke="hsl(202,70%,60%)" stroke-width="0.8" opacity="0.85"/>
<line x1="780.0" y1="322.4" x2="780.0" y2="314.1" stroke="hsl(202,70%,60%)" stroke-width="0.8" opacity="0.85"/>
<line x1="780.0" y1="314.1" x2="780.0" y2="305.7" stroke="hsl(203,70%,60%)" stroke-width="0.8" opacity="0.85"/>
<line x1="780.0" y1="305.7" x2="780.0" y2="297.3" stroke="hsl(204,70%,60%)" stroke-width="0.8" opacity="0.85"/>
<line x1="775.8" y1="298.5" x2="771.6" y2="291.2" stroke="hsl(205,70%,60%)" stroke-width="0.8" opacity="0.85"/>
<line x1="771.6" y1="291.2" x2="769.5" y2="283.1" stroke="hsl(205,70%,60%)" stroke-width="0.8" opacity="0.85"/>
<line x1="765.2" y1="267.0" x2="763.0" y2="258.9" stroke="hsl(206,70%,60%)" stroke-width="0.8" opacity="0.85"/>
<line x1="763.0" y1="258.9" x2="760.8" y2="250.8" stroke="hsl(207,70%,60%)" stroke-width="0.8" opacity="0.85"/>
<line x1="758.7" y1="242.8" x2="756.5" y2="234.7" stroke="hsl(207,70%,60%)" stroke-width="0.8" opacity="0.85"/>
<line x1="756.5" y1="234.7" x2="754.3" y2="226.6" stroke="hsl(208,70%,60%)" stroke-width="0.8" opacity="0.85"/>
<line x1="754.3" y1="226.6" x2="752.2" y2="218.5" stroke="hsl(209,70%,60%)" stroke-width="0.8" opacity="0.85"/>
<line x1="752.2" y1="218.5" x2="750.0" y2="210.5" stroke="hsl(210,70%,60%)" stroke-width="0.8" opacity="0.85"/>
<line x1="747.8" y1="202.4" x2="745.7" y2="194.3" stroke="hsl(210,70%,60%)" stroke-width="0.8" opacity="0.85"/>
<line x1="745.7" y1="194.3" x2="743.5" y2="186.3" stroke="hsl(211,70%,60%)" stroke-width="0.8" opacity="0.85"/>
<line x1="743.5" y1="186.3" x2="741.4" y2="178.2" stroke="hsl(212,70%,60%)" stroke-width="0.8" opacity="0.85"/>
<line x1="741.4" y1="178.2" x2="739.2" y2="170.1" stroke="hsl(212,70%,60%)" stroke-width="0.8" opacity="0.85"/>
<line x1="737.0" y1="162.0" x2="734.9" y2="154.0" stroke="hsl(213,70%,60%)" stroke-width="0.8" opacity="0.85"/>
<line x1="734.9" y1="154.0" x2="732.7" y2="145.9" stroke="hsl(214,70%,60%)" stroke-width="0.8" opacity="0.85"/>
<line x1="732.7" y1="145.9" x2="730.5" y2="137.8" stroke="hsl(215,70%,60%)" stroke-width="0.8" opacity="0.85"/>
<line x1="730.5" y1="137.8" x2="728.4" y2="129.7" stroke="hsl(215,70%,60%)" stroke-width="0.8" opacity="0.85"/>
<line x1="728.4" y1="129.7" x2="726.2" y2="121.7" stroke="hsl(216,70%,60%)" stroke-width="0.8" opacity="0.85"/>
<line x1="722.5" y1="123.8" x2="716.6" y2="117.9" stroke="hsl(217,70%,60%)" stroke-width="0.8" opacity="0.85"/>
<line x1="716.6" y1="117.9" x2="712.4" y2="110.7" stroke="hsl(218,70%,60%)" stroke-width="0.8" opacity="0.85"/>
<line x1="708.2" y1="103.4" x2="704.0" y2="96.2" stroke="hsl(218,70%,60%)" stroke-width="0.8" opacity="0.85"/>
<line x1="704.0" y1="96.2" x2="699.8" y2="89.0" stroke="hsl(219,70%,60%)" stroke-width="0.8" opacity="0.85"/>
<line x1="695.7" y1="81.7" x2="691.5" y2="74.5" stroke="hsl(220,70%,60%)" stroke-width="0.8" opacity="0.85"/>
<line x1="691.5" y1="74.5" x2="687.3" y2="67.2" stroke="hsl(220,70%,60%)" stroke-width="0.8" opacity="0.85"/>
<line x1="701.0" y1="99.3" x2="693.7" y2="95.1" stroke="hsl(221,70%,60%)" stroke-width="0.8" opacity="0.85"/>
<line x1="693.7" y1="95.1" x2="686.5" y2="90.9" stroke="hsl(222,70%,60%)" stroke-width="0.8" opacity="0.85"/>
<line x1="686.5" y1="90.9" x2="679.2" y2="86.7" stroke="hsl(223,70%,60%)" stroke-width="0.8" opacity="0.85"/>
<line x1="678.1" y1="90.9" x2="669.8" y2="90.9" stroke="hsl(223,70%,60%)" stroke-width="0.8" opacity="0.85"/>
<line x1="669.8" y1="90.9" x2="661.7" y2="88.7" stroke="hsl(224,70%,60%)" stroke-width="0.8" opacity="0.85"/>
<line x1="653.6" y1="86.6" x2="646.4" y2="82.4" stroke="hsl(225,70%,60%)" stroke-width="0.8" opacity="0.85"/>
<line x1="646.4" y1="82.4" x2="639.1" y2="78.2" stroke="hsl(225,70%,60%)" stroke-width="0.8" opacity="0.85"/>
<line x1="639.1" y1="78.2" x2="631.9" y2="74.0" stroke="hsl(226,70%,60%)" stroke-width="0.8" opacity="0.85"/>
<line x1="630.8" y1="78.2" x2="622.4" y2="78.2" stroke="hsl(227,70%,60%)" stroke-width="0.8" opacity="0.85"/>
<line x1="622.4" y1="78.2" x2="614.3" y2="76.0" stroke="hsl(228,70%,60%)" stroke-width="0.8" opacity="0.85"/>
<line x1="590.1" y1="69.6" x2="582.0" y2="67.4" stroke="hsl(228,70%,60%)" stroke-width="0.8" opacity="0.85"/>
<line x1="582.0" y1="67.4" x2="574.0" y2="65.2" stroke="hsl(229,70%,60%)" stroke-width="0.8" opacity="0.85"/>
<line x1="565.9" y1="63.1" x2="557.8" y2="60.9" stroke="hsl(230,70%,60%)" stroke-width="0.8" opacity="0.85"/>
<line x1="557.8" y1="60.9" x2="549.7" y2="58.7" stroke="hsl(230,70%,60%)" stroke-width="0.8" opacity="0.85"/>
<line x1="549.7" y1="58.7" x2="541.7" y2="56.6" stroke="hsl(231,70%,60%)" stroke-width="0.8" opacity="0.85"/>
<line x1="541.7" y1="56.6" x2="533.6" y2="54.4" stroke="hsl(232,70%,60%)" stroke-width="0.8" opacity="0.85"/>
<line x1="533.6" y1="54.4" x2="525.5" y2="52.2" stroke="hsl(233,70%,60%)" stroke-width="0.8" opacity="0.85"/>
<line x1="525.5" y1="56.6" x2="517.4" y2="58.7" stroke="hsl(233,70%,60%)" stroke-width="0.8" opacity="0.85"/>
<line x1="517.4" y1="58.7" x2="509.1" y2="58.7" stroke="hsl(234,70%,60%)" stroke-width="0.8" opacity="0.85"/>
<line x1="492.4" y1="58.7" x2="484.0" y2="58.7" stroke="hsl(235,70%,60%)" stroke-width="0.8" opacity="0.85"/>
<line x1="484.0" y1="58.7" x2="475.7" y2="58.7" stroke="hsl(236,70%,60%)" stroke-width="0.8" opacity="0.85"/>
<line x1="467.3" y1="58.7" x2="458.9" y2="58.7" stroke="hsl(236,70%,60%)" stroke-width="0.8" opacity="0.85"/>
<line x1="458.9" y1="58.7" x2="450.6" y2="58.7" stroke="hsl(237,70%,60%)" stroke-width="0.8" opacity="0.85"/>
<line x1="450.6" y1="58.7" x2="442.2" y2="58.7" stroke="hsl(238,70%,60%)" stroke-width="0.8" opacity="0.85"/>
<line x1="442.2" y1="58.7" x2="433.9" y2="58.7" stroke="hsl(238,70%,60%)" stroke-width="0.8" opacity="0.85"/>
<line x1="425.5" y1="58.7" x2="417.1" y2="58.7" stroke="hsl(239,70%,60%)" stroke-width="0.8" opacity="0.85"/>
<line x1="417.1" y1="58.7" x2="408.8" y2="58.7" stroke="hsl(240,70%,60%)" stroke-width="0.8" opacity="0.85"/>
<line x1="408.8" y1="58.7" x2="400.4" y2="58.7" stroke="hsl(241,70%,60%)" stroke-width="0.8" opacity="0.85"/>
<line x1="400.4" y1="58.7" x2="392.1" y2="58.7" stroke="hsl(241,70%,60%)" stroke-width="0.8" opacity="0.85"/>
<line x1="383.7" y1="58.7" x2="375.3" y2="58.7" stroke="hsl(242,70%,60%)" stroke-width="0.8" opacity="0.85"/>
<line x1="375.3" y1="58.7" x2="367.0" y2="58.7" stroke="hsl(243,70%,60%)" stroke-width="0.8" opacity="0.85"/>
<line x1="367.0" y1="58.7" x2="358.6" y2="58.7" stroke="hsl(243,70%,60%)" stroke-width="0.8" opacity="0.85"/>
<line x1="358.6" y1="58.7" x2="350.3" y2="58.7" stroke="hsl(244,70%,60%)" stroke-width="0.8" opacity="0.85"/>
<line x1="350.3" y1="58.7" x2="341.9" y2="58.7" stroke="hsl(245,70%,60%)" stroke-width="0.8" opacity="0.85"/>
<line x1="343.0" y1="62.9" x2="335.8" y2="67.1" stroke="hsl(246,70%,60%)" stroke-width="0.8" opacity="0.85"/>
<line x1="335.8" y1="67.1" x2="327.7" y2="69.3" stroke="hsl(246,70%,60%)" stroke-width="0.8" opacity="0.85"/>
<line x1="311.6" y1="73.6" x2="303.5" y2="75.8" stroke="hsl(247,70%,60%)" stroke-width="0.8" opacity="0.85"/>
<line x1="303.5" y1="75.8" x2="295.4" y2="77.9" stroke="hsl(248,70%,60%)" stroke-width="0.8" opacity="0.85"/>
<line x1="287.3" y1="80.1" x2="279.3" y2="82.2" stroke="hsl(249,70%,60%)" stroke-width="0.8" opacity="0.85"/>
<line x1="279.3" y1="82.2" x2="271.2" y2="84.4" stroke="hsl(249,70%,60%)" stroke-width="0.8" opacity="0.85"/>
<line x1="271.2" y1="84.4" x2="263.1" y2="86.6" stroke="hsl(250,70%,60%)" stroke-width="0.8" opacity="0.85"/>
<line x1="263.1" y1="86.6" x2="255.1" y2="88.7" stroke="hsl(251,70%,60%)" stroke-width="0.8" opacity="0.85"/>
<line x1="247.0" y1="90.9" x2="238.9" y2="93.1" stroke="hsl(251,70%,60%)" stroke-width="0.8" opacity="0.85"/>
<line x1="238.9" y1="93.1" x2="230.8" y2="95.2" stroke="hsl(252,70%,60%)" stroke-width="0.8" opacity="0.85"/>
<line x1="230.8" y1="95.2" x2="223.6" y2="99.4" stroke="hsl(253,70%,60%)" stroke-width="0.8" opacity="0.85"/>
<line x1="223.6" y1="99.4" x2="216.4" y2="103.6" stroke="hsl(254,70%,60%)" stroke-width="0.8" opacity="0.85"/>
<line x1="209.1" y1="107.8" x2="201.9" y2="111.9" stroke="hsl(254,70%,60%)" stroke-width="0.8" opacity="0.85"/>
<line x1="201.9" y1="111.9" x2="194.6" y2="116.1" stroke="hsl(255,70%,60%)" stroke-width="0.8" opacity="0.85"/>
<line x1="194.6" y1="116.1" x2="187.4" y2="120.3" stroke="hsl(256,70%,60%)" stroke-width="0.8" opacity="0.85"/>
<line x1="187.4" y1="120.3" x2="180.2" y2="124.5" stroke="hsl(256,70%,60%)" stroke-width="0.8" opacity="0.85"/>
<line x1="180.2" y1="124.5" x2="172.9" y2="128.7" stroke="hsl(257,70%,60%)" stroke-width="0.8" opacity="0.85"/>
<line x1="176.0" y1="131.7" x2="171.8" y2="139.0" stroke="hsl(258,70%,60%)" stroke-width="0.8" opacity="0.85"/>
<line x1="171.8" y1="139.0" x2="165.9" y2="144.9" stroke="hsl(259,70%,60%)" stroke-width="0.8" opacity="0.85"/>
<line x1="154.1" y1="156.7" x2="148.2" y2="162.6" stroke="hsl(259,70%,60%)" stroke-width="0.8" opacity="0.85"/>
<line x1="148.2" y1="162.6" x2="142.2" y2="168.5" stroke="hsl(260,70%,60%)" stroke-width="0.8" opacity="0.85"/>
<line x1="136.3" y1="174.4" x2="130.4" y2="180.3" stroke="hsl(261,70%,60%)" stroke-width="0.8" opacity="0.85"/>
<line x1="130.4" y1="180.3" x2="124.5" y2="186.2" stroke="hsl(261,70%,60%)" stroke-width="0.8" opacity="0.85"/>
<line x1="124.5" y1="186.2" x2="118.6" y2="192.2" stroke="hsl(262,70%,60%)" stroke-width="0.8" opacity="0.85"/>
<line x1="118.6" y1="192.2" x2="112.7" y2="198.1" stroke="hsl(263,70%,60%)" stroke-width="0.8" opacity="0.85"/>
<line x1="106.8" y1="204.0" x2="100.9" y2="209.9" stroke="hsl(264,70%,60%)" stroke-width="0.8" opacity="0.85"/>
<line x1="100.9" y1="209.9" x2="95.0" y2="215.8" stroke="hsl(264,70%,60%)" stroke-width="0.8" opacity="0.85"/>
<line x1="95.0" y1="215.8" x2="89.0" y2="221.7" stroke="hsl(265,70%,60%)" stroke-width="0.8" opacity="0.85"/>
<line x1="89.0" y1="221.7" x2="83.1" y2="227.6" stroke="hsl(266,70%,60%)" stroke-width="0.8" opacity="0.85"/>
<line x1="77.2" y1="233.5" x2="71.3" y2="239.4" stroke="hsl(267,70%,60%)" stroke-width="0.8" opacity="0.85"/>
<line x1="71.3" y1="239.4" x2="65.4" y2="245.3" stroke="hsl(267,70%,60%)" stroke-width="0.8" opacity="0.85"/>
<line x1="65.4" y1="245.3" x2="59.5" y2="251.3" stroke="hsl(268,70%,60%)" stroke-width="0.8" opacity="0.85"/>
<line x1="59.5" y1="251.3" x2="53.6" y2="257.2" stroke="hsl(269,70%,60%)" stroke-width="0.8" opacity="0.85"/>
<line x1="53.6" y1="257.2" x2="47.7" y2="263.1" stroke="hsl(269,70%,60%)" stroke-width="0.8" opacity="0.85"/>
<line x1="51.4" y1="265.2" x2="49.3" y2="273.3" stroke="hsl(270,70%,60%)" stroke-width="0.8" opacity="0.85"/>
<line x1="49.3" y1="273.3" x2="45.1" y2="280.6" stroke="hsl(271,70%,60%)" stroke-width="0.8" opacity="0.85"/>
<line x1="40.9" y1="287.8" x2="36.7" y2="295.0" stroke="hsl(272,70%,60%)" stroke-width="0.8" opacity="0.85"/>
<line x1="36.7" y1="295.0" x2="32.5" y2="302.3" stroke="hsl(272,70%,60%)" stroke-width="0.8" opacity="0.85"/>
<line x1="28.4" y1="309.5" x2="24.2" y2="316.8" stroke="hsl(273,70%,60%)" stroke-width="0.8" opacity="0.85"/>
<line x1="24.2" y1="316.8" x2="20.0" y2="324.0" stroke="hsl(274,70%,60%)" stroke-width="0.8" opacity="0.85"/>
<line x1="40.9" y1="296.2" x2="40.9" y2="304.5" stroke="hsl(274,70%,60%)" stroke-width="0.8" opacity="0.85"/>
<line x1="40.9" y1="304.5" x2="40.9" y2="312.9" stroke="hsl(275,70%,60%)" stroke-width="0.8" opacity="0.85"/>
<line x1="40.9" y1="312.9" x2="40.9" y2="321.2" stroke="hsl(276,70%,60%)" stroke-width="0.8" opacity="0.85"/>
<line x1="45.1" y1="320.1" x2="49.3" y2="327.4" stroke="hsl(277,70%,60%)" stroke-width="0.8" opacity="0.85"/>
<line x1="49.3" y1="327.4" x2="51.4" y2="335.4" stroke="hsl(277,70%,60%)" stroke-width="0.8" opacity="0.85"/>
<line x1="53.6" y1="343.5" x2="53.6" y2="351.9" stroke="hsl(278,70%,60%)" stroke-width="0.8" opacity="0.85"/>
<line x1="53.6" y1="351.9" x2="53.6" y2="360.2" stroke="hsl(279,70%,60%)" stroke-width="0.8" opacity="0.85"/>
<line x1="53.6" y1="360.2" x2="53.6" y2="368.6" stroke="hsl(280,70%,60%)" stroke-width="0.8" opacity="0.85"/>
<line x1="57.8" y1="367.5" x2="61.9" y2="374.7" stroke="hsl(280,70%,60%)" stroke-width="0.8" opacity="0.85"/>
<line x1="61.9" y1="374.7" x2="64.1" y2="382.8" stroke="hsl(281,70%,60%)" stroke-width="0.8" opacity="0.85"/>
<line x1="70.6" y1="407.0" x2="72.8" y2="415.1" stroke="hsl(282,70%,60%)" stroke-width="0.8" opacity="0.85"/>
<line x1="72.8" y1="415.1" x2="74.9" y2="423.1" stroke="hsl(282,70%,60%)" stroke-width="0.8" opacity="0.85"/>
<line x1="77.1" y1="431.2" x2="79.2" y2="439.3" stroke="hsl(283,70%,60%)" stroke-width="0.8" opacity="0.85"/>
<line x1="79.2" y1="439.3" x2="81.4" y2="447.4" stroke="hsl(284,70%,60%)" stroke-width="0.8" opacity="0.85"/>
<line x1="81.4" y1="447.4" x2="83.6" y2="455.4" stroke="hsl(285,70%,60%)" stroke-width="0.8" opacity="0.85"/>
<line x1="83.6" y1="455.4" x2="85.7" y2="463.5" stroke="hsl(285,70%,60%)" stroke-width="0.8" opacity="0.85"/>
<line x1="85.7" y1="463.5" x2="87.9" y2="471.6" stroke="hsl(286,70%,60%)" stroke-width="0.8" opacity="0.85"/>
<line x1="91.7" y1="469.4" x2="97.6" y2="475.3" stroke="hsl(287,70%,60%)" stroke-width="0.8" opacity="0.85"/>
<line x1="97.6" y1="475.3" x2="101.7" y2="482.6" stroke="hsl(287,70%,60%)" stroke-width="0.8" opacity="0.85"/>
<line x1="110.1" y1="497.0" x2="114.3" y2="504.3" stroke="hsl(288,70%,60%)" stroke-width="0.8" opacity="0.85"/>
<line x1="114.3" y1="504.3" x2="118.5" y2="511.5" stroke="hsl(289,70%,60%)" stroke-width="0.8" opacity="0.85"/>
<line x1="122.6" y1="518.8" x2="126.8" y2="526.0" stroke="hsl(290,70%,60%)" stroke-width="0.8" opacity="0.85"/>
<line x1="126.8" y1="526.0" x2="131.0" y2="533.2" stroke="hsl(290,70%,60%)" stroke-width="0.8" opacity="0.85"/>
<line x1="131.0" y1="533.2" x2="135.2" y2="540.5" stroke="hsl(291,70%,60%)" stroke-width="0.8" opacity="0.85"/>
<line x1="135.2" y1="540.5" x2="139.4" y2="547.7" stroke="hsl(292,70%,60%)" stroke-width="0.8" opacity="0.85"/>
<line x1="143.5" y1="555.0" x2="147.7" y2="562.2" stroke="hsl(292,70%,60%)" stroke-width="0.8" opacity="0.85"/>
<line x1="147.7" y1="562.2" x2="151.9" y2="569.4" stroke="hsl(293,70%,60%)" stroke-width="0.8" opacity="0.85"/>
<line x1="151.9" y1="569.4" x2="156.1" y2="576.7" stroke="hsl(294,70%,60%)" stroke-width="0.8" opacity="0.85"/>
<line x1="156.1" y1="576.7" x2="160.3" y2="583.9" stroke="hsl(295,70%,60%)" stroke-width="0.8" opacity="0.85"/>
<line x1="164.4" y1="591.2" x2="168.6" y2="598.4" stroke="hsl(295,70%,60%)" stroke-width="0.8" opacity="0.85"/>
<line x1="168.6" y1="598.4" x2="172.8" y2="605.6" stroke="hsl(296,70%,60%)" stroke-width="0.8" opacity="0.85"/>
<line x1="172.8" y1="605.6" x2="177.0" y2="612.9" stroke="hsl(297,70%,60%)" stroke-width="0.8" opacity="0.85"/>
<line x1="177.0" y1="612.9" x2="181.2" y2="620.1" stroke="hsl(298,70%,60%)" stroke-width="0.8" opacity="0.85"/>
<line x1="181.2" y1="620.1" x2="185.3" y2="627.4" stroke="hsl(298,70%,60%)" stroke-width="0.8" opacity="0.85"/>
<line x1="188.4" y1="624.3" x2="195.6" y2="628.5" stroke="hsl(299,70%,60%)" stroke-width="0.8" opacity="0.85"/>
<line x1="195.6" y1="628.5" x2="201.5" y2="634.4" stroke="hsl(300,70%,60%)" stroke-width="0.8" opacity="0.85"/>
<line x1="213.4" y1="646.2" x2="219.3" y2="652.1" stroke="hsl(300,70%,60%)" stroke-width="0.8" opacity="0.85"/>
<line x1="219.3" y1="652.1" x2="225.2" y2="658.0" stroke="hsl(301,70%,60%)" stroke-width="0.8" opacity="0.85"/>
<line x1="231.1" y1="663.9" x2="237.0" y2="669.8" stroke="hsl(302,70%,60%)" stroke-width="0.8" opacity="0.85"/>
<line x1="237.0" y1="669.8" x2="242.9" y2="675.8" stroke="hsl(303,70%,60%)" stroke-width="0.8" opacity="0.85"/>
<line x1="242.9" y1="675.8" x2="248.8" y2="681.7" stroke="hsl(303,70%,60%)" stroke-width="0.8" opacity="0.85"/>
<line x1="248.8" y1="681.7" x2="254.7" y2="687.6" stroke="hsl(304,70%,60%)" stroke-width="0.8" opacity="0.85"/>
<line x1="260.6" y1="693.5" x2="266.6" y2="699.4" stroke="hsl(305,70%,60%)" stroke-width="0.8" opacity="0.85"/>
<line x1="266.6" y1="699.4" x2="272.5" y2="705.3" stroke="hsl(305,70%,60%)" stroke-width="0.8" opacity="0.85"/>
<line x1="272.5" y1="705.3" x2="279.7" y2="709.5" stroke="hsl(306,70%,60%)" stroke-width="0.8" opacity="0.85"/>
<line x1="279.7" y1="709.5" x2="286.9" y2="713.7" stroke="hsl(307,70%,60%)" stroke-width="0.8" opacity="0.85"/>
<line x1="294.2" y1="717.8" x2="301.4" y2="722.0" stroke="hsl(308,70%,60%)" stroke-width="0.8" opacity="0.85"/>
<line x1="301.4" y1="722.0" x2="308.7" y2="726.2" stroke="hsl(308,70%,60%)" stroke-width="0.8" opacity="0.85"/>
<line x1="308.7" y1="726.2" x2="315.9" y2="730.4" stroke="hsl(309,70%,60%)" stroke-width="0.8" opacity="0.85"/>
<line x1="315.9" y1="730.4" x2="323.1" y2="734.6" stroke="hsl(310,70%,60%)" stroke-width="0.8" opacity="0.85"/>
<line x1="323.1" y1="734.6" x2="330.4" y2="738.7" stroke="hsl(310,70%,60%)" stroke-width="0.8" opacity="0.85"/>
<line x1="331.5" y1="734.6" x2="339.9" y2="734.6" stroke="hsl(311,70%,60%)" stroke-width="0.8" opacity="0.85"/>
<line x1="339.9" y1="734.6" x2="347.9" y2="736.7" stroke="hsl(312,70%,60%)" stroke-width="0.8" opacity="0.85"/>
<line x1="364.1" y1="741.1" x2="372.2" y2="743.2" stroke="hsl(313,70%,60%)" stroke-width="0.8" opacity="0.85"/>
<line x1="372.2" y1="743.2" x2="380.2" y2="745.4" stroke="hsl(313,70%,60%)" stroke-width="0.8" opacity="0.85"/>
<line x1="388.3" y1="747.5" x2="396.4" y2="749.7" stroke="hsl(314,70%,60%)" stroke-width="0.8" opacity="0.85"/>
<line x1="396.4" y1="749.7" x2="404.5" y2="751.9" stroke="hsl(315,70%,60%)" stroke-width="0.8" opacity="0.85"/>
<line x1="404.5" y1="751.9" x2="412.5" y2="754.0" stroke="hsl(316,70%,60%)" stroke-width="0.8" opacity="0.85"/>
<line x1="412.5" y1="754.0" x2="420.6" y2="756.2" stroke="hsl(316,70%,60%)" stroke-width="0.8" opacity="0.85"/>
<line x1="428.7" y1="758.4" x2="436.7" y2="760.5" stroke="hsl(317,70%,60%)" stroke-width="0.8" opacity="0.85"/>
<line x1="436.7" y1="760.5" x2="444.8" y2="762.7" stroke="hsl(318,70%,60%)" stroke-width="0.8" opacity="0.85"/>
<line x1="444.8" y1="762.7" x2="452.9" y2="764.9" stroke="hsl(318,70%,60%)" stroke-width="0.8" opacity="0.85"/>
<line x1="452.9" y1="764.9" x2="461.0" y2="767.0" stroke="hsl(319,70%,60%)" stroke-width="0.8" opacity="0.85"/>
<line x1="469.0" y1="769.2" x2="477.1" y2="771.3" stroke="hsl(320,70%,60%)" stroke-width="0.8" opacity="0.85"/>
<line x1="477.1" y1="771.3" x2="485.2" y2="773.5" stroke="hsl(321,70%,60%)" stroke-width="0.8" opacity="0.85"/>
<line x1="485.2" y1="773.5" x2="493.3" y2="775.7" stroke="hsl(321,70%,60%)" stroke-width="0.8" opacity="0.85"/>
<line x1="493.3" y1="775.7" x2="501.3" y2="777.8" stroke="hsl(322,70%,60%)" stroke-width="0.8" opacity="0.85"/>
<line x1="501.3" y1="777.8" x2="509.4" y2="780.0" stroke="hsl(323,70%,60%)" stroke-width="0.8" opacity="0.85"/>
<line x1="509.4" y1="775.7" x2="517.5" y2="773.5" stroke="hsl(323,70%,60%)" stroke-width="0.8" opacity="0.85"/>
<line x1="517.5" y1="773.5" x2="525.8" y2="773.5" stroke="hsl(324,70%,60%)" stroke-width="0.8" opacity="0.85"/>
<line x1="534.2" y1="773.5" x2="542.6" y2="773.5" stroke="hsl(325,70%,60%)" stroke-width="0.8" opacity="0.85"/>
<line x1="542.6" y1="773.5" x2="550.9" y2="773.5" stroke="hsl(326,70%,60%)" stroke-width="0.8" opacity="0.85"/>
<line x1="559.3" y1="773.5" x2="567.6" y2="773.5" stroke="hsl(326,70%,60%)" stroke-width="0.8" opacity="0.85"/>
<line x1="567.6" y1="773.5" x2="576.0" y2="773.5" stroke="hsl(327,70%,60%)" stroke-width="0.8" opacity="0.85"/>
<line x1="541.4" y1="769.3" x2="548.7" y2="765.2" stroke="hsl(328,70%,60%)" stroke-width="0.8" opacity="0.85"/>
<line x1="548.7" y1="765.2" x2="555.9" y2="761.0" stroke="hsl(329,70%,60%)" stroke-width="0.8" opacity="0.85"/>
<line x1="555.9" y1="761.0" x2="563.2" y2="756.8" stroke="hsl(329,70%,60%)" stroke-width="0.8" opacity="0.85"/>
<line x1="560.1" y1="753.7" x2="564.3" y2="746.5" stroke="hsl(330,70%,60%)" stroke-width="0.8" opacity="0.85"/>
<line x1="564.3" y1="746.5" x2="570.2" y2="740.6" stroke="hsl(331,70%,60%)" stroke-width="0.8" opacity="0.85"/>
<line x1="576.1" y1="734.7" x2="583.3" y2="730.5" stroke="hsl(331,70%,60%)" stroke-width="0.8" opacity="0.85"/>
<line x1="583.3" y1="730.5" x2="590.6" y2="726.3" stroke="hsl(332,70%,60%)" stroke-width="0.8" opacity="0.85"/>
<line x1="590.6" y1="726.3" x2="597.8" y2="722.1" stroke="hsl(333,70%,60%)" stroke-width="0.8" opacity="0.85"/>
<line x1="594.8" y1="719.1" x2="598.9" y2="711.8" stroke="hsl(334,70%,60%)" stroke-width="0.8" opacity="0.85"/>
<line x1="598.9" y1="711.8" x2="604.9" y2="705.9" stroke="hsl(334,70%,60%)" stroke-width="0.8" opacity="0.85"/>
<line x1="622.6" y1="688.2" x2="628.5" y2="682.3" stroke="hsl(335,70%,60%)" stroke-width="0.8" opacity="0.85"/>
<line x1="628.5" y1="682.3" x2="634.4" y2="676.4" stroke="hsl(336,70%,60%)" stroke-width="0.8" opacity="0.85"/>
<line x1="640.3" y1="670.5" x2="646.2" y2="664.5" stroke="hsl(336,70%,60%)" stroke-width="0.8" opacity="0.85"/>
<line x1="646.2" y1="664.5" x2="652.1" y2="658.6" stroke="hsl(337,70%,60%)" stroke-width="0.8" opacity="0.85"/>
<line x1="652.1" y1="658.6" x2="658.0" y2="652.7" stroke="hsl(338,70%,60%)" stroke-width="0.8" opacity="0.85"/>
<line x1="658.0" y1="652.7" x2="664.0" y2="646.8" stroke="hsl(339,70%,60%)" stroke-width="0.8" opacity="0.85"/>
<line x1="664.0" y1="646.8" x2="669.9" y2="640.9" stroke="hsl(339,70%,60%)" stroke-width="0.8" opacity="0.85"/>
<line x1="666.1" y1="638.7" x2="668.3" y2="630.7" stroke="hsl(340,70%,60%)" stroke-width="0.8" opacity="0.85"/>
<line x1="668.3" y1="630.7" x2="672.5" y2="623.4" stroke="hsl(341,70%,60%)" stroke-width="0.8" opacity="0.85"/>
<line x1="680.8" y1="609.0" x2="685.0" y2="601.7" stroke="hsl(341,70%,60%)" stroke-width="0.8" opacity="0.85"/>
<line x1="685.0" y1="601.7" x2="689.2" y2="594.5" stroke="hsl(342,70%,60%)" stroke-width="0.8" opacity="0.85"/>
<line x1="693.4" y1="587.2" x2="697.5" y2="580.0" stroke="hsl(343,70%,60%)" stroke-width="0.8" opacity="0.85"/>
<line x1="697.5" y1="580.0" x2="701.7" y2="572.8" stroke="hsl(344,70%,60%)" stroke-width="0.8" opacity="0.85"/>
<line x1="701.7" y1="572.8" x2="705.9" y2="565.5" stroke="hsl(344,70%,60%)" stroke-width="0.8" opacity="0.85"/>
<line x1="705.9" y1="565.5" x2="710.1" y2="558.3" stroke="hsl(345,70%,60%)" stroke-width="0.8" opacity="0.85"/>
<line x1="714.3" y1="551.0" x2="718.4" y2="543.8" stroke="hsl(346,70%,60%)" stroke-width="0.8" opacity="0.85"/>
<line x1="718.4" y1="543.8" x2="722.6" y2="536.6" stroke="hsl(347,70%,60%)" stroke-width="0.8" opacity="0.85"/>
<line x1="722.6" y1="536.6" x2="726.8" y2="529.3" stroke="hsl(347,70%,60%)" stroke-width="0.8" opacity="0.85"/>
<line x1="726.8" y1="529.3" x2="731.0" y2="522.1" stroke="hsl(348,70%,60%)" stroke-width="0.8" opacity="0.85"/>
<line x1="735.2" y1="514.8" x2="739.3" y2="507.6" stroke="hsl(349,70%,60%)" stroke-width="0.8" opacity="0.85"/>
<line x1="739.3" y1="507.6" x2="743.5" y2="500.4" stroke="hsl(349,70%,60%)" stroke-width="0.8" opacity="0.85"/>
<line x1="743.5" y1="500.4" x2="747.7" y2="493.1" stroke="hsl(350,70%,60%)" stroke-width="0.8" opacity="0.85"/>
<line x1="747.7" y1="493.1" x2="751.9" y2="485.9" stroke="hsl(351,70%,60%)" stroke-width="0.8" opacity="0.85"/>
<line x1="751.9" y1="485.9" x2="756.1" y2="478.6" stroke="hsl(352,70%,60%)" stroke-width="0.8" opacity="0.85"/>
<line x1="751.9" y1="477.5" x2="751.9" y2="469.2" stroke="hsl(352,70%,60%)" stroke-width="0.8" opacity="0.85"/>
<line x1="751.9" y1="469.2" x2="754.0" y2="461.1" stroke="hsl(353,70%,60%)" stroke-width="0.8" opacity="0.85"/>
<line x1="758.4" y1="444.9" x2="760.5" y2="436.9" stroke="hsl(354,70%,60%)" stroke-width="0.8" opacity="0.85"/>
<line x1="760.5" y1="436.9" x2="762.7" y2="428.8" stroke="hsl(354,70%,60%)" stroke-width="0.8" opacity="0.85"/>
<line x1="764.9" y1="420.7" x2="767.0" y2="412.7" stroke="hsl(355,70%,60%)" stroke-width="0.8" opacity="0.85"/>
<line x1="767.0" y1="412.7" x2="769.2" y2="404.6" stroke="hsl(356,70%,60%)" stroke-width="0.8" opacity="0.85"/>
<line x1="769.2" y1="404.6" x2="771.3" y2="396.5" stroke="hsl(357,70%,60%)" stroke-width="0.8" opacity="0.85"/>
<line x1="771.3" y1="396.5" x2="773.5" y2="388.4" stroke="hsl(357,70%,60%)" stroke-width="0.8" opacity="0.85"/>
<line x1="775.7" y1="380.4" x2="777.8" y2="372.3" stroke="hsl(358,70%,60%)" stroke-width="0.8" opacity="0.85"/>
<line x1="777.8" y1="372.3" x2="780.0" y2="364.2" stroke="hsl(359,70%,60%)" stroke-width="0.8" opacity="0.85"/>
</svg>