<svg xmlns="http://www.w3.org/2000/svg" width="800" height="800">
<rect width="800" height="800" fill="#0a0a0a"/>
<line x1="167.5" y1="214.9" x2="167.5" y2="200.0" stroke="hsl(200,70%,60%)" stroke-width="0.8" opacity="0.85"/>
<line x1="167.5" y1="185.1" x2="167.5" y2="170.1" stroke="hsl(201,70%,60%)" stroke-width="0.8" opacity="0.85"/>
<line x1="167.5" y1="155.2" x2="178.0" y2="144.7" stroke="hsl(203,70%,60%)" stroke-width="0.8" opacity="0.85"/>
<line x1="178.0" y1="144.7" x2="188.6" y2="134.2" stroke="hsl(204,70%,60%)" stroke-width="0.8" opacity="0.85"/>
<line x1="188.6" y1="134.2" x2="199.1" y2="123.6" stroke="hsl(206,70%,60%)" stroke-width="0.8" opacity="0.85"/>
<line x1="209.6" y1="113.1" x2="220.2" y2="102.5" stroke="hsl(207,70%,60%)" stroke-width="0.8" opacity="0.85"/>
<line x1="220.2" y1="87.6" x2="230.7" y2="77.1" stroke="hsl(209,70%,60%)" stroke-width="0.8" opacity="0.85"/>
<line x1="241.3" y1="66.5" x2="251.8" y2="56.0" stroke="hsl(210,70%,60%)" stroke-width="0.8" opacity="0.85"/>
<line x1="262.4" y1="45.5" x2="277.3" y2="45.5" stroke="hsl(212,70%,60%)" stroke-width="0.8" opacity="0.85"/>
<line x1="277.3" y1="45.5" x2="292.2" y2="45.5" stroke="hsl(213,70%,60%)" stroke-width="0.8" opacity="0.85"/>
<line x1="292.2" y1="45.5" x2="307.1" y2="45.5" stroke="hsl(215,70%,60%)" stroke-width="0.8" opacity="0.85"/>
<line x1="307.1" y1="45.5" x2="322.0" y2="45.5" stroke="hsl(216,70%,60%)" stroke-width="0.8" opacity="0.85"/>
<line x1="336.9" y1="45.5" x2="351.8" y2="45.5" stroke="hsl(218,70%,60%)" stroke-width="0.8" opacity="0.85"/>
<line x1="366.7" y1="45.5" x2="377.3" y2="56.0" stroke="hsl(219,70%,60%)" stroke-width="0.8" opacity="0.85"/>
<line x1="377.3" y1="56.0" x2="387.8" y2="66.5" stroke="hsl(221,70%,60%)" stroke-width="0.8" opacity="0.85"/>
<line x1="387.8" y1="66.5" x2="398.3" y2="77.1" stroke="hsl(222,70%,60%)" stroke-width="0.8" opacity="0.85"/>
<line x1="398.3" y1="77.1" x2="408.9" y2="87.6" stroke="hsl(224,70%,60%)" stroke-width="0.8" opacity="0.85"/>
<line x1="423.8" y1="87.6" x2="438.7" y2="87.6" stroke="hsl(225,70%,60%)" stroke-width="0.8" opacity="0.85"/>
<line x1="438.7" y1="72.7" x2="449.2" y2="62.2" stroke="hsl(227,70%,60%)" stroke-width="0.8" opacity="0.85"/>
<line x1="459.8" y1="51.6" x2="470.3" y2="41.1" stroke="hsl(228,70%,60%)" stroke-width="0.8" opacity="0.85"/>
<line x1="480.9" y1="30.5" x2="495.8" y2="30.5" stroke="hsl(230,70%,60%)" stroke-width="0.8" opacity="0.85"/>
<line x1="495.8" y1="30.5" x2="510.7" y2="30.5" stroke="hsl(231,70%,60%)" stroke-width="0.8" opacity="0.85"/>
<line x1="510.7" y1="30.5" x2="525.6" y2="30.5" stroke="hsl(233,70%,60%)" stroke-width="0.8" opacity="0.85"/>
<line x1="540.5" y1="30.5" x2="555.4" y2="30.5" stroke="hsl(234,70%,60%)" stroke-width="0.8" opacity="0.85"/>
<line x1="566.0" y1="20.0" x2="580.9" y2="20.0" stroke="hsl(236,70%,60%)" stroke-width="0.8" opacity="0.85"/>
<line x1="595.8" y1="20.0" x2="610.7" y2="20.0" stroke="hsl(237,70%,60%)" stroke-width="0.8" opacity="0.85"/>
<line x1="625.6" y1="20.0" x2="636.1" y2="30.5" stroke="hsl(239,70%,60%)" stroke-width="0.8" opacity="0.85"/>
<line x1="636.1" y1="30.5" x2="646.7" y2="41.1" stroke="hsl(240,70%,60%)" stroke-width="0.8" opacity="0.85"/>
<line x1="646.7" y1="41.1" x2="657.2" y2="51.6" stroke="hsl(242,70%,60%)" stroke-width="0.8" opacity="0.85"/>
<line x1="657.2" y1="51.6" x2="667.8" y2="62.2" stroke="hsl(243,70%,60%)" stroke-width="0.8" opacity="0.85"/>
<line x1="678.3" y1="72.7" x2="688.8" y2="83.3" stroke="hsl(245,70%,60%)" stroke-width="0.8" opacity="0.85"/>
<line x1="699.4" y1="93.8" x2="699.4" y2="108.7" stroke="hsl(246,70%,60%)" stroke-width="0.8" opacity="0.85"/>
<line x1="699.4" y1="108.7" x2="699.4" y2="123.6" stroke="hsl(248,70%,60%)" stroke-width="0.8" opacity="0.85"/>
<line x1="699.4" y1="123.6" x2="699.4" y2="138.5" stroke="hsl(249,70%,60%)" stroke-width="0.8" opacity="0.85"/>
<line x1="699.4" y1="138.5" x2="699.4" y2="153.4" stroke="hsl(251,70%,60%)" stroke-width="0.8" opacity="0.85"/>
<line x1="699.4" y1="153.4" x2="709.9" y2="164.0" stroke="hsl(252,70%,60%)" stroke-width="0.8" opacity="0.85"/>
<line x1="720.5" y1="174.5" x2="731.0" y2="185.1" stroke="hsl(254,70%,60%)" stroke-width="0.8" opacity="0.85"/>
<line x1="741.5" y1="195.6" x2="741.5" y2="210.5" stroke="hsl(255,70%,60%)" stroke-width="0.8" opacity="0.85"/>
<line x1="741.5" y1="210.5" x2="741.5" y2="225.4" stroke="hsl(257,70%,60%)" stroke-width="0.8" opacity="0.85"/>
<line x1="741.5" y1="225.4" x2="741.5" y2="240.3" stroke="hsl(258,70%,60%)" stroke-width="0.8" opacity="0.85"/>
<line x1="741.5" y1="255.2" x2="741.5" y2="270.1" stroke="hsl(260,70%,60%)" stroke-width="0.8" opacity="0.85"/>
<line x1="752.1" y1="280.7" x2="752.1" y2="295.6" stroke="hsl(261,70%,60%)" stroke-width="0.8" opacity="0.85"/>
<line x1="752.1" y1="310.5" x2="752.1" y2="325.4" stroke="hsl(263,70%,60%)" stroke-width="0.8" opacity="0.85"/>
<line x1="752.1" y1="340.3" x2="741.5" y2="350.9" stroke="hsl(264,70%,60%)" stroke-width="0.8" opacity="0.85"/>
<line x1="741.5" y1="350.9" x2="731.0" y2="361.4" stroke="hsl(266,70%,60%)" stroke-width="0.8" opacity="0.85"/>
<line x1="731.0" y1="361.4" x2="720.5" y2="371.9" stroke="hsl(267,70%,60%)" stroke-width="0.8" opacity="0.85"/>
<line x1="720.5" y1="371.9" x2="709.9" y2="382.5" stroke="hsl(269,70%,60%)" stroke-width="0.8" opacity="0.85"/>
<line x1="699.4" y1="393.0" x2="688.8" y2="403.6" stroke="hsl(270,70%,60%)" stroke-width="0.8" opacity="0.85"/>
<line x1="678.3" y1="414.1" x2="663.4" y2="414.1" stroke="hsl(272,70%,60%)" stroke-width="0.8" opacity="0.85"/>
<line x1="663.4" y1="414.1" x2="648.5" y2="414.1" stroke="hsl(273,70%,60%)" stroke-width="0.8" opacity="0.85"/>
<line x1="648.5" y1="414.1" x2="633.6" y2="414.1" stroke="hsl(275,70%,60%)" stroke-width="0.8" opacity="0.85"/>
<line x1="633.6" y1="414.1" x2="618.7" y2="414.1" stroke="hsl(276,70%,60%)" stroke-width="0.8" opacity="0.85"/>
<line x1="618.7" y1="414.1" x2="608.1" y2="424.7" stroke="hsl(278,70%,60%)" stroke-width="0.8" opacity="0.85"/>
<line x1="608.1" y1="424.7" x2="613.8" y2="438.4" stroke="hsl(280,70%,60%)" stroke-width="0.8" opacity="0.85"/>
<line x1="619.5" y1="452.2" x2="625.2" y2="466.0" stroke="hsl(281,70%,60%)" stroke-width="0.8" opacity="0.85"/>
<line x1="630.9" y1="479.7" x2="625.2" y2="493.5" stroke="hsl(283,70%,60%)" stroke-width="0.8" opacity="0.85"/>
<line x1="625.2" y1="493.5" x2="619.5" y2="507.3" stroke="hsl(284,70%,60%)" stroke-width="0.8" opacity="0.85"/>
<line x1="619.5" y1="507.3" x2="613.8" y2="521.1" stroke="hsl(286,70%,60%)" stroke-width="0.8" opacity="0.85"/>
<line x1="608.1" y1="534.8" x2="602.4" y2="548.6" stroke="hsl(287,70%,60%)" stroke-width="0.8" opacity="0.85"/>
<line x1="608.1" y1="562.4" x2="602.4" y2="576.2" stroke="hsl(289,70%,60%)" stroke-width="0.8" opacity="0.85"/>
<line x1="596.7" y1="589.9" x2="591.0" y2="603.7" stroke="hsl(290,70%,60%)" stroke-width="0.8" opacity="0.85"/>
<line x1="585.3" y1="617.5" x2="571.5" y2="623.2" stroke="hsl(292,70%,60%)" stroke-width="0.8" opacity="0.85"/>
<line x1="571.5" y1="623.2" x2="557.7" y2="628.9" stroke="hsl(293,70%,60%)" stroke-width="0.8" opacity="0.85"/>
<line x1="557.7" y1="628.9" x2="544.0" y2="634.6" stroke="hsl(295,70%,60%)" stroke-width="0.8" opacity="0.85"/>
<line x1="544.0" y1="634.6" x2="530.2" y2="640.3" stroke="hsl(296,70%,60%)" stroke-width="0.8" opacity="0.85"/>
<line x1="516.4" y1="646.0" x2="502.7" y2="651.7" stroke="hsl(298,70%,60%)" stroke-width="0.8" opacity="0.85"/>
<line x1="488.9" y1="657.4" x2="475.1" y2="651.7" stroke="hsl(299,70%,60%)" stroke-width="0.8" opacity="0.85"/>
<line x1="475.1" y1="651.7" x2="461.3" y2="646.0" stroke="hsl(301,70%,60%)" stroke-width="0.8" opacity="0.85"/>
<line x1="461.3" y1="646.0" x2="447.6" y2="640.3" stroke="hsl(302,70%,60%)" stroke-width="0.8" opacity="0.85"/>
<line x1="447.6" y1="640.3" x2="433.8" y2="634.6" stroke="hsl(304,70%,60%)" stroke-width="0.8" opacity="0.85"/>
<line x1="420.0" y1="640.3" x2="406.2" y2="646.0" stroke="hsl(305,70%,60%)" stroke-width="0.8" opacity="0.85"/>
<line x1="411.9" y1="659.8" x2="406.2" y2="673.6" stroke="hsl(307,70%,60%)" stroke-width="0.8" opacity="0.85"/>
<line x1="400.5" y1="687.3" x2="394.8" y2="701.1" stroke="hsl(308,70%,60%)" stroke-width="0.8" opacity="0.85"/>
<line x1="389.1" y1="714.9" x2="375.3" y2="720.6" stroke="hsl(310,70%,60%)" stroke-width="0.8" opacity="0.85"/>
<line x1="375.3" y1="720.6" x2="361.6" y2="726.3" stroke="hsl(311,70%,60%)" stroke-width="0.8" opacity="0.85"/>
<line x1="361.6" y1="726.3" x2="347.8" y2="732.0" stroke="hsl(313,70%,60%)" stroke-width="0.8" opacity="0.85"/>
<line x1="334.0" y1="737.7" x2="320.3" y2="743.4" stroke="hsl(314,70%,60%)" stroke-width="0.8" opacity="0.85"/>
<line x1="314.5" y1="757.2" x2="300.8" y2="762.9" stroke="hsl(316,70%,60%)" stroke-width="0.8" opacity="0.85"/>
<line x1="287.0" y1="768.6" x2="273.2" y2="774.3" stroke="hsl(317,70%,60%)" stroke-width="0.8" opacity="0.85"/>
<line x1="259.5" y1="780.0" x2="245.7" y2="774.3" stroke="hsl(319,70%,60%)" stroke-width="0.8" opacity="0.85"/>
<line x1="245.7" y1="774.3" x2="231.9" y2="768.6" stroke="hsl(320,70%,60%)" stroke-width="0.8" opacity="0.85"/>
<line x1="231.9" y1="768.6" x2="218.1" y2="762.9" stroke="hsl(322,70%,60%)" stroke-width="0.8" opacity="0.85"/>
<line x1="218.1" y1="762.9" x2="204.4" y2="757.2" stroke="hsl(323,70%,60%)" stroke-width="0.8" opacity="0.85"/>
<line x1="190.6" y1="751.5" x2="176.8" y2="745.8" stroke="hsl(325,70%,60%)" stroke-width="0.8" opacity="0.85"/>
<line x1="163.0" y1="740.1" x2="157.3" y2="726.3" stroke="hsl(326,70%,60%)" stroke-width="0.8" opacity="0.85"/>
<line x1="157.3" y1="726.3" x2="151.6" y2="712.5" stroke="hsl(328,70%,60%)" stroke-width="0.8" opacity="0.85"/>
<line x1="151.6" y1="712.5" x2="145.9" y2="698.7" stroke="hsl(329,70%,60%)" stroke-width="0.8" opacity="0.85"/>
<line x1="145.9" y1="698.7" x2="140.2" y2="685.0" stroke="hsl(331,70%,60%)" stroke-width="0.8" opacity="0.85"/>
<line x1="140.2" y1="685.0" x2="126.4" y2="679.3" stroke="hsl(332,70%,60%)" stroke-width="0.8" opacity="0.85"/>
<line x1="112.7" y1="673.6" x2="98.9" y2="667.9" stroke="hsl(334,70%,60%)" stroke-width="0.8" opacity="0.85"/>
<line x1="85.1" y1="662.1" x2="79.4" y2="648.4" stroke="hsl(335,70%,60%)" stroke-width="0.8" opacity="0.85"/>
<line x1="79.4" y1="648.4" x2="73.7" y2="634.6" stroke="hsl(337,70%,60%)" stroke-width="0.8" opacity="0.85"/>
<line x1="73.7" y1="634.6" x2="68.0" y2="620.8" stroke="hsl(338,70%,60%)" stroke-width="0.8" opacity="0.85"/>
<line x1="62.3" y1="607.1" x2="56.6" y2="593.3" stroke="hsl(340,70%,60%)" stroke-width="0.8" opacity="0.85"/>
<line x1="42.8" y1="587.6" x2="37.1" y2="573.8" stroke="hsl(341,70%,60%)" stroke-width="0.8" opacity="0.85"/>
<line x1="31.4" y1="560.0" x2="25.7" y2="546.3" stroke="hsl(343,70%,60%)" stroke-width="0.8" opacity="0.85"/>
<line x1="20.0" y1="532.5" x2="25.7" y2="518.7" stroke="hsl(344,70%,60%)" stroke-width="0.8" opacity="0.85"/>
<line x1="25.7" y1="518.7" x2="31.4" y2="504.9" stroke="hsl(346,70%,60%)" stroke-width="0.8" opacity="0.85"/>
<line x1="31.4" y1="504.9" x2="37.1" y2="491.2" stroke="hsl(347,70%,60%)" stroke-width="0.8" opacity="0.85"/>
<line x1="37.1" y1="491.2" x2="42.8" y2="477.4" stroke="hsl(349,70%,60%)" stroke-width="0.8" opacity="0.85"/>
<line x1="48.5" y1="463.6" x2="54.2" y2="449.8" stroke="hsl(350,70%,60%)" stroke-width="0.8" opacity="0.85"/>
<line x1="59.9" y1="436.1" x2="73.7" y2="430.4" stroke="hsl(352,70%,60%)" stroke-width="0.8" opacity="0.85"/>
<line x1="73.7" y1="430.4" x2="87.5" y2="424.7" stroke="hsl(353,70%,60%)" stroke-width="0.8" opacity="0.85"/>
<line x1="87.5" y1="424.7" x2="101.3" y2="418.9" stroke="hsl(355,70%,60%)" stroke-width="0.8" opacity="0.85"/>
<line x1="101.3" y1="418.9" x2="115.0" y2="413.2" stroke="hsl(356,70%,60%)" stroke-width="0.8" opacity="0.85"/>
<line x1="115.0" y1="413.2" x2="120.7" y2="399.5" stroke="hsl(358,70%,60%)" stroke-width="0.8" opacity="0.85"/>
</svg>